<svg width="23" height="23" viewBox="0 0 23 23" fill="none" xmlns="http://www.w3.org/2000/svg">
<g clip-path="url(#clip0_397_1874)">
<path d="M14.6926 18.0589C14.0272 17.3935 13.478 16.6361 13.0634 15.8124C12.8635 15.4055 12.3957 15.1275 12.0203 15.1325L9.87581 14.833C9.21511 12.6593 9.21483 10.9136 9.87522 8.7609L11.9608 8.46607C12.4257 8.46638 12.8485 8.21046 13.0669 7.79209C13.4838 6.96424 14.0325 6.20683 14.6981 5.54115C15.1791 5.06028 15.1791 4.27782 14.6982 3.79696L12.7023 1.80105C12.2214 1.32018 11.439 1.32018 10.9581 1.80105C5.44614 7.31301 5.44617 16.2814 10.9581 21.7934C11.439 22.2743 12.2215 22.2743 12.7023 21.7934L14.6927 19.8031C15.1735 19.3222 15.1735 18.5398 14.6926 18.0589Z" fill="black"/>
</g>
<defs>
<clipPath id="clip0_397_1874">
<rect width="15.37" height="15.37" fill="white" transform="translate(11.8302 0.928955) rotate(45)"/>
</clipPath>
</defs>
</svg>
