<svg width="16" height="16" viewBox="0 0 16 16" fill="none" xmlns="http://www.w3.org/2000/svg">
<g clip-path="url(#clip0_397_1880)">
<path d="M0.356956 3.44213C2.46643 5.22862 6.16791 8.37162 7.25582 9.35161C7.40187 9.48387 7.55851 9.55112 7.72113 9.55112C7.88341 9.55112 8.03979 9.4845 8.1855 9.35287C9.27434 8.37192 12.9758 5.22862 15.0853 3.44213C15.2167 3.33111 15.2367 3.13599 15.1304 3.00027C14.8846 2.68665 14.5181 2.50684 14.1253 2.50684H1.31695C0.924207 2.50684 0.557697 2.68665 0.311927 3.0003C0.205597 3.13599 0.22562 3.33111 0.356956 3.44213Z" fill="black"/>
<path d="M15.2204 4.41022C15.1069 4.35739 14.9734 4.37582 14.879 4.45651C12.5396 6.43967 9.55391 8.98167 8.61454 9.82814C8.0873 10.3041 7.35558 10.3041 6.82711 9.8275C5.82584 8.92535 2.473 6.07505 0.563337 4.45648C0.468265 4.37579 0.334438 4.35799 0.221864 4.41019C0.10869 4.46276 0.0361328 4.57596 0.0361328 4.70072V12.7535C0.0361328 13.4599 0.610558 14.0343 1.31698 14.0343H14.1254C14.8317 14.0343 15.4062 13.4599 15.4062 12.7535V4.70072C15.4062 4.57596 15.3336 4.46246 15.2204 4.41022Z" fill="black"/>
</g>
<defs>
<clipPath id="clip0_397_1880">
<rect width="15.37" height="15.37" fill="white" transform="translate(0.0361328 0.585571)"/>
</clipPath>
</defs>
</svg>
