<svg width="24" height="24" viewBox="0 0 24 24" fill="none" xmlns="http://www.w3.org/2000/svg">
<path d="M10.3393 1.26466C6.49636 1.79054 3.49839 4.80199 2.95454 8.68541C2.86914 9.32366 2.88712 10.6676 2.99499 11.2429C3.26916 12.6947 3.75909 13.8408 4.5996 14.978C5.0176 15.5398 5.36819 15.9039 6.15027 16.5826C8.02905 18.2187 9.62916 20.1469 10.7573 22.1335C10.8877 22.3628 11.0495 22.5965 11.1214 22.6594C11.3551 22.8527 11.7552 22.8617 11.9844 22.6774C12.0473 22.628 12.2451 22.3403 12.4249 22.0392C13.6654 19.9401 15.0677 18.2681 17.0005 16.5646C18.1286 15.5758 18.7624 14.7757 19.3197 13.6251C20.6637 10.8653 20.4434 7.64713 18.7399 5.08515C17.3421 2.98613 15.1666 1.62424 12.6451 1.26466C12.0698 1.18376 10.9416 1.18376 10.3393 1.26466ZM12.4204 6.37963C13.3553 6.63582 14.0744 7.14822 14.5778 7.92131C15.4947 9.32366 15.3015 11.1934 14.1194 12.389C12.5013 14.0251 9.81345 13.7509 8.55493 11.8182C8.1549 11.2069 7.99309 10.6541 7.99309 9.87201C7.99309 9.08993 8.1549 8.53708 8.55044 7.9303C9.08531 7.11226 9.91683 6.54593 10.8922 6.33917C11.2518 6.26276 12.0698 6.28524 12.4204 6.37963Z" fill="black"/>
</svg>
