<svg width="22" height="14" viewBox="0 0 22 14" fill="none" xmlns="http://www.w3.org/2000/svg">
<path d="M9.09542 5.553C9.47838 4.97855 9.66987 4.30835 9.66987 3.54242C9.66987 1.53186 7.94653 0 6.0317 0H0.478706C0.191482 0 0 0.191483 0 0.478706V12.6378C0 12.9251 0.191482 13.1165 0.478706 13.1165H6.60615C8.90394 13.1165 10.8188 11.2975 10.8188 8.99967C10.8188 7.56355 10.1486 6.31893 9.09542 5.553ZM2.39353 2.48927H6.0317C6.70189 2.48927 7.18059 3.06372 7.18059 3.63817C7.18059 4.30836 6.60615 4.78706 6.0317 4.78706H2.39353V2.48927ZM6.70189 10.723H2.39353V7.27634H6.70189C7.6593 7.27634 8.42523 8.04226 8.42523 8.99967C8.42523 9.95709 7.6593 10.723 6.70189 10.723Z" fill="white"/>
<path d="M21.446 8.13801C21.446 5.26578 19.244 2.96799 16.4675 2.96799C13.691 2.96799 11.4889 5.26578 11.4889 8.13801C11.4889 11.0103 13.691 13.308 16.4675 13.308C18.0951 13.308 19.627 12.4464 20.5844 11.0103C20.6801 10.8188 20.7759 10.6273 20.8716 10.4358C20.9673 10.3401 20.8716 10.1486 20.6801 10.1486H18.2866C18.1908 10.1486 18.1908 10.1486 18.0951 10.2443C17.6164 10.723 17.0419 10.9145 16.4675 10.9145C15.2229 10.9145 14.2654 10.0528 13.9782 8.8082H20.9673C21.2546 8.8082 21.446 8.61672 21.446 8.32949V8.13801ZM16.4675 5.45726C17.3292 5.45726 18.0951 5.93597 18.5738 6.7019H14.3612C14.7442 5.93597 15.6058 5.45726 16.4675 5.45726Z" fill="white"/>
<path d="M18.4781 2.39355H14.074C13.8825 2.39355 13.691 2.20206 13.691 2.01058V0.957427C13.691 0.765944 13.8825 0.57446 14.074 0.57446H18.4781C18.6695 0.57446 18.861 0.765944 18.861 0.957427V2.10632C18.861 2.20206 18.7653 2.39355 18.4781 2.39355Z" fill="white"/>
</svg>
